<mxfile host="app.diagrams.net" agent="Mozilla/5.0 (Windows NT 10.0; Win64; x64) AppleWebKit/537.36 (KHTML, like Gecko) Chrome/140.0.0.0 Safari/537.36" version="28.2.5">
  <diagram name="หน้า-1" id="Ljue6Dd8xsv9lIiF6Eex">
    <mxGraphModel dx="1491" dy="691" grid="1" gridSize="10" guides="1" tooltips="1" connect="1" arrows="1" fold="1" page="1" pageScale="1" pageWidth="827" pageHeight="1169" math="0" shadow="0">
      <root>
        <mxCell id="0" />
        <mxCell id="1" parent="0" />
        <mxCell id="p4u4spNlCYpVbPZBGIiS-35" value="" style="edgeStyle=orthogonalEdgeStyle;rounded=0;orthogonalLoop=1;jettySize=auto;html=1;" parent="1" source="p4u4spNlCYpVbPZBGIiS-1" target="p4u4spNlCYpVbPZBGIiS-2" edge="1">
          <mxGeometry relative="1" as="geometry" />
        </mxCell>
        <mxCell id="p4u4spNlCYpVbPZBGIiS-1" value="Start" style="ellipse;whiteSpace=wrap;html=1;" parent="1" vertex="1">
          <mxGeometry x="460" y="30" width="120" height="50" as="geometry" />
        </mxCell>
        <mxCell id="p4u4spNlCYpVbPZBGIiS-36" value="" style="edgeStyle=orthogonalEdgeStyle;rounded=0;orthogonalLoop=1;jettySize=auto;html=1;" parent="1" source="p4u4spNlCYpVbPZBGIiS-2" target="p4u4spNlCYpVbPZBGIiS-3" edge="1">
          <mxGeometry relative="1" as="geometry" />
        </mxCell>
        <mxCell id="p4u4spNlCYpVbPZBGIiS-2" value="แสดง: Enter value:" style="shape=parallelogram;perimeter=parallelogramPerimeter;whiteSpace=wrap;html=1;" parent="1" vertex="1">
          <mxGeometry x="410" y="140" width="220" height="60" as="geometry" />
        </mxCell>
        <mxCell id="p4u4spNlCYpVbPZBGIiS-37" value="" style="edgeStyle=orthogonalEdgeStyle;rounded=0;orthogonalLoop=1;jettySize=auto;html=1;" parent="1" source="p4u4spNlCYpVbPZBGIiS-3" target="p4u4spNlCYpVbPZBGIiS-4" edge="1">
          <mxGeometry relative="1" as="geometry" />
        </mxCell>
        <mxCell id="p4u4spNlCYpVbPZBGIiS-3" value="อ่าน 1 บรรทัดด้วย fgets() → line" style="shape=parallelogram;perimeter=parallelogramPerimeter;whiteSpace=wrap;html=1;" parent="1" vertex="1">
          <mxGeometry x="410" y="250" width="220" height="60" as="geometry" />
        </mxCell>
        <mxCell id="pmIDaaM-dI9VB6d24hKW-2" value="" style="edgeStyle=orthogonalEdgeStyle;rounded=0;orthogonalLoop=1;jettySize=auto;html=1;" parent="1" source="p4u4spNlCYpVbPZBGIiS-4" target="p4u4spNlCYpVbPZBGIiS-5" edge="1">
          <mxGeometry relative="1" as="geometry" />
        </mxCell>
        <mxCell id="9IDuzy3jqwEA8BaXGOj5-1" value="จริง" style="edgeLabel;html=1;align=center;verticalAlign=middle;resizable=0;points=[];" parent="pmIDaaM-dI9VB6d24hKW-2" connectable="0" vertex="1">
          <mxGeometry x="-0.2314" y="2" relative="1" as="geometry">
            <mxPoint as="offset" />
          </mxGeometry>
        </mxCell>
        <mxCell id="pmIDaaM-dI9VB6d24hKW-11" style="edgeStyle=orthogonalEdgeStyle;rounded=0;orthogonalLoop=1;jettySize=auto;html=1;exitX=1;exitY=0.5;exitDx=0;exitDy=0;" parent="1" source="p4u4spNlCYpVbPZBGIiS-4" target="pmIDaaM-dI9VB6d24hKW-12" edge="1">
          <mxGeometry relative="1" as="geometry">
            <mxPoint x="670" y="1220" as="targetPoint" />
            <Array as="points">
              <mxPoint x="670" y="410" />
              <mxPoint x="670" y="1205" />
            </Array>
          </mxGeometry>
        </mxCell>
        <mxCell id="9IDuzy3jqwEA8BaXGOj5-2" value="เท็จ" style="edgeLabel;html=1;align=center;verticalAlign=middle;resizable=0;points=[];" parent="pmIDaaM-dI9VB6d24hKW-11" connectable="0" vertex="1">
          <mxGeometry x="-0.7615" y="1" relative="1" as="geometry">
            <mxPoint as="offset" />
          </mxGeometry>
        </mxCell>
        <mxCell id="p4u4spNlCYpVbPZBGIiS-4" value="อ่านบรรทัดได้หรือไม่ ?" style="rhombus;whiteSpace=wrap;html=1;" parent="1" vertex="1">
          <mxGeometry x="410" y="370" width="220" height="80" as="geometry" />
        </mxCell>
        <mxCell id="pmIDaaM-dI9VB6d24hKW-3" value="" style="edgeStyle=orthogonalEdgeStyle;rounded=0;orthogonalLoop=1;jettySize=auto;html=1;" parent="1" source="p4u4spNlCYpVbPZBGIiS-5" target="p4u4spNlCYpVbPZBGIiS-6" edge="1">
          <mxGeometry relative="1" as="geometry" />
        </mxCell>
        <mxCell id="p4u4spNlCYpVbPZBGIiS-5" value="กำหนด n = 0" style="whiteSpace=wrap;html=1;" parent="1" vertex="1">
          <mxGeometry x="440" y="535" width="160" height="50" as="geometry" />
        </mxCell>
        <mxCell id="pmIDaaM-dI9VB6d24hKW-4" value="" style="edgeStyle=orthogonalEdgeStyle;rounded=0;orthogonalLoop=1;jettySize=auto;html=1;" parent="1" source="p4u4spNlCYpVbPZBGIiS-6" target="p4u4spNlCYpVbPZBGIiS-7" edge="1">
          <mxGeometry relative="1" as="geometry" />
        </mxCell>
        <mxCell id="p4u4spNlCYpVbPZBGIiS-6" value="p = จุดเริ่มของ line" style="whiteSpace=wrap;html=1;" parent="1" vertex="1">
          <mxGeometry x="440" y="650" width="160" height="50" as="geometry" />
        </mxCell>
        <mxCell id="pmIDaaM-dI9VB6d24hKW-5" value="" style="edgeStyle=orthogonalEdgeStyle;rounded=0;orthogonalLoop=1;jettySize=auto;html=1;" parent="1" source="p4u4spNlCYpVbPZBGIiS-7" target="p4u4spNlCYpVbPZBGIiS-8" edge="1">
          <mxGeometry relative="1" as="geometry" />
        </mxCell>
        <mxCell id="9IDuzy3jqwEA8BaXGOj5-10" value="จริง" style="edgeLabel;html=1;align=center;verticalAlign=middle;resizable=0;points=[];" parent="pmIDaaM-dI9VB6d24hKW-5" connectable="0" vertex="1">
          <mxGeometry x="-0.1329" relative="1" as="geometry">
            <mxPoint as="offset" />
          </mxGeometry>
        </mxCell>
        <mxCell id="pmIDaaM-dI9VB6d24hKW-14" style="edgeStyle=orthogonalEdgeStyle;rounded=0;orthogonalLoop=1;jettySize=auto;html=1;entryX=1;entryY=0.5;entryDx=0;entryDy=0;" parent="1" source="p4u4spNlCYpVbPZBGIiS-7" target="pmIDaaM-dI9VB6d24hKW-15" edge="1">
          <mxGeometry relative="1" as="geometry">
            <mxPoint x="720" y="1050" as="targetPoint" />
            <Array as="points">
              <mxPoint x="710" y="800" />
              <mxPoint x="710" y="1035" />
            </Array>
          </mxGeometry>
        </mxCell>
        <mxCell id="9IDuzy3jqwEA8BaXGOj5-3" value="เท็จ" style="edgeLabel;html=1;align=center;verticalAlign=middle;resizable=0;points=[];" parent="pmIDaaM-dI9VB6d24hKW-14" connectable="0" vertex="1">
          <mxGeometry x="-0.2588" y="3" relative="1" as="geometry">
            <mxPoint as="offset" />
          </mxGeometry>
        </mxCell>
        <mxCell id="p4u4spNlCYpVbPZBGIiS-7" value="ยังแปลงได้ตัวเลข และ n &lt; MAXN ?" style="rhombus;whiteSpace=wrap;html=1;" parent="1" vertex="1">
          <mxGeometry x="430" y="760" width="180" height="80" as="geometry" />
        </mxCell>
        <mxCell id="pmIDaaM-dI9VB6d24hKW-6" value="" style="edgeStyle=orthogonalEdgeStyle;rounded=0;orthogonalLoop=1;jettySize=auto;html=1;" parent="1" source="pmIDaaM-dI9VB6d24hKW-15" target="p4u4spNlCYpVbPZBGIiS-9" edge="1">
          <mxGeometry relative="1" as="geometry" />
        </mxCell>
        <mxCell id="p4u4spNlCYpVbPZBGIiS-8" value="a[n] = val&#xa;n = n + 1&#xa;p ขยับตาม consumed" style="whiteSpace=wrap;html=1;" parent="1" vertex="1">
          <mxGeometry x="420" y="920" width="200" height="70" as="geometry" />
        </mxCell>
        <mxCell id="pmIDaaM-dI9VB6d24hKW-7" value="" style="edgeStyle=orthogonalEdgeStyle;rounded=0;orthogonalLoop=1;jettySize=auto;html=1;" parent="1" source="pmIDaaM-dI9VB6d24hKW-12" target="p4u4spNlCYpVbPZBGIiS-10" edge="1">
          <mxGeometry relative="1" as="geometry" />
        </mxCell>
        <mxCell id="pmIDaaM-dI9VB6d24hKW-17" style="edgeStyle=orthogonalEdgeStyle;rounded=0;orthogonalLoop=1;jettySize=auto;html=1;entryX=0.5;entryY=0;entryDx=0;entryDy=0;" parent="1" source="p4u4spNlCYpVbPZBGIiS-9" target="p4u4spNlCYpVbPZBGIiS-14" edge="1">
          <mxGeometry relative="1" as="geometry">
            <Array as="points">
              <mxPoint x="700" y="1120" />
              <mxPoint x="700" y="1710" />
              <mxPoint x="530" y="1710" />
            </Array>
          </mxGeometry>
        </mxCell>
        <mxCell id="9IDuzy3jqwEA8BaXGOj5-4" value="เท็จ" style="edgeLabel;html=1;align=center;verticalAlign=middle;resizable=0;points=[];" parent="pmIDaaM-dI9VB6d24hKW-17" connectable="0" vertex="1">
          <mxGeometry x="-0.5873" y="2" relative="1" as="geometry">
            <mxPoint as="offset" />
          </mxGeometry>
        </mxCell>
        <mxCell id="p4u4spNlCYpVbPZBGIiS-9" value="n == 0 ?" style="rhombus;whiteSpace=wrap;html=1;" parent="1" vertex="1">
          <mxGeometry x="410" y="1080" width="220" height="80" as="geometry" />
        </mxCell>
        <mxCell id="pmIDaaM-dI9VB6d24hKW-8" value="" style="edgeStyle=orthogonalEdgeStyle;rounded=0;orthogonalLoop=1;jettySize=auto;html=1;" parent="1" source="p4u4spNlCYpVbPZBGIiS-10" target="p4u4spNlCYpVbPZBGIiS-11" edge="1">
          <mxGeometry relative="1" as="geometry" />
        </mxCell>
        <mxCell id="p4u4spNlCYpVbPZBGIiS-10" value="แสดง: Index:" style="shape=parallelogram;perimeter=parallelogramPerimeter;whiteSpace=wrap;html=1;" parent="1" vertex="1">
          <mxGeometry x="430" y="1270" width="180" height="50" as="geometry" />
        </mxCell>
        <mxCell id="pmIDaaM-dI9VB6d24hKW-9" value="" style="edgeStyle=orthogonalEdgeStyle;rounded=0;orthogonalLoop=1;jettySize=auto;html=1;" parent="1" source="p4u4spNlCYpVbPZBGIiS-11" target="p4u4spNlCYpVbPZBGIiS-12" edge="1">
          <mxGeometry relative="1" as="geometry" />
        </mxCell>
        <mxCell id="p4u4spNlCYpVbPZBGIiS-11" value="แสดง: Array:" style="shape=parallelogram;perimeter=parallelogramPerimeter;whiteSpace=wrap;html=1;" parent="1" vertex="1">
          <mxGeometry x="430" y="1365" width="180" height="50" as="geometry" />
        </mxCell>
        <mxCell id="pmIDaaM-dI9VB6d24hKW-10" value="" style="edgeStyle=orthogonalEdgeStyle;rounded=0;orthogonalLoop=1;jettySize=auto;html=1;" parent="1" source="p4u4spNlCYpVbPZBGIiS-12" target="p4u4spNlCYpVbPZBGIiS-13" edge="1">
          <mxGeometry relative="1" as="geometry" />
        </mxCell>
        <mxCell id="p4u4spNlCYpVbPZBGIiS-12" value="แสดง: Min : " style="shape=parallelogram;perimeter=parallelogramPerimeter;whiteSpace=wrap;html=1;" parent="1" vertex="1">
          <mxGeometry x="430" y="1500" width="180" height="50" as="geometry" />
        </mxCell>
        <mxCell id="p4u4spNlCYpVbPZBGIiS-13" value="แสดง: Max : " style="shape=parallelogram;perimeter=parallelogramPerimeter;whiteSpace=wrap;html=1;" parent="1" vertex="1">
          <mxGeometry x="430" y="1620" width="180" height="50" as="geometry" />
        </mxCell>
        <mxCell id="pmIDaaM-dI9VB6d24hKW-19" value="" style="edgeStyle=orthogonalEdgeStyle;rounded=0;orthogonalLoop=1;jettySize=auto;html=1;" parent="1" source="p4u4spNlCYpVbPZBGIiS-14" target="p4u4spNlCYpVbPZBGIiS-15" edge="1">
          <mxGeometry relative="1" as="geometry" />
        </mxCell>
        <mxCell id="p4u4spNlCYpVbPZBGIiS-14" value="mn = a[0], mx = a[0]" style="whiteSpace=wrap;html=1;" parent="1" vertex="1">
          <mxGeometry x="440" y="1754" width="180" height="50" as="geometry" />
        </mxCell>
        <mxCell id="pmIDaaM-dI9VB6d24hKW-20" value="" style="edgeStyle=orthogonalEdgeStyle;rounded=0;orthogonalLoop=1;jettySize=auto;html=1;" parent="1" source="p4u4spNlCYpVbPZBGIiS-15" target="p4u4spNlCYpVbPZBGIiS-16" edge="1">
          <mxGeometry relative="1" as="geometry" />
        </mxCell>
        <mxCell id="p4u4spNlCYpVbPZBGIiS-15" value="i = 1" style="whiteSpace=wrap;html=1;" parent="1" vertex="1">
          <mxGeometry x="440" y="1880" width="180" height="50" as="geometry" />
        </mxCell>
        <mxCell id="pmIDaaM-dI9VB6d24hKW-21" value="" style="edgeStyle=orthogonalEdgeStyle;rounded=0;orthogonalLoop=1;jettySize=auto;html=1;" parent="1" source="p4u4spNlCYpVbPZBGIiS-16" target="p4u4spNlCYpVbPZBGIiS-17" edge="1">
          <mxGeometry relative="1" as="geometry" />
        </mxCell>
        <mxCell id="pmIDaaM-dI9VB6d24hKW-39" style="edgeStyle=orthogonalEdgeStyle;rounded=0;orthogonalLoop=1;jettySize=auto;html=1;entryX=1;entryY=0.5;entryDx=0;entryDy=0;" parent="1" source="p4u4spNlCYpVbPZBGIiS-16" target="pmIDaaM-dI9VB6d24hKW-40" edge="1">
          <mxGeometry relative="1" as="geometry">
            <mxPoint x="690" y="2770" as="targetPoint" />
            <Array as="points">
              <mxPoint x="670" y="2060" />
              <mxPoint x="670" y="2785" />
            </Array>
          </mxGeometry>
        </mxCell>
        <mxCell id="9IDuzy3jqwEA8BaXGOj5-5" value="เท็จ" style="edgeLabel;html=1;align=center;verticalAlign=middle;resizable=0;points=[];" parent="pmIDaaM-dI9VB6d24hKW-39" connectable="0" vertex="1">
          <mxGeometry x="-0.5437" y="-4" relative="1" as="geometry">
            <mxPoint as="offset" />
          </mxGeometry>
        </mxCell>
        <mxCell id="p4u4spNlCYpVbPZBGIiS-16" value="i &lt; n ?" style="rhombus;whiteSpace=wrap;html=1;" parent="1" vertex="1">
          <mxGeometry x="440" y="2020" width="180" height="80" as="geometry" />
        </mxCell>
        <mxCell id="pmIDaaM-dI9VB6d24hKW-22" value="" style="edgeStyle=orthogonalEdgeStyle;rounded=0;orthogonalLoop=1;jettySize=auto;html=1;" parent="1" source="p4u4spNlCYpVbPZBGIiS-17" target="p4u4spNlCYpVbPZBGIiS-18" edge="1">
          <mxGeometry relative="1" as="geometry" />
        </mxCell>
        <mxCell id="9IDuzy3jqwEA8BaXGOj5-12" value="จริง" style="edgeLabel;html=1;align=center;verticalAlign=middle;resizable=0;points=[];" parent="pmIDaaM-dI9VB6d24hKW-22" connectable="0" vertex="1">
          <mxGeometry x="-0.1278" relative="1" as="geometry">
            <mxPoint as="offset" />
          </mxGeometry>
        </mxCell>
        <mxCell id="pmIDaaM-dI9VB6d24hKW-44" style="edgeStyle=orthogonalEdgeStyle;rounded=0;orthogonalLoop=1;jettySize=auto;html=1;entryX=1;entryY=0.5;entryDx=0;entryDy=0;" parent="1" source="p4u4spNlCYpVbPZBGIiS-17" target="pmIDaaM-dI9VB6d24hKW-42" edge="1">
          <mxGeometry relative="1" as="geometry">
            <Array as="points">
              <mxPoint x="630" y="2215" />
              <mxPoint x="630" y="2395" />
            </Array>
          </mxGeometry>
        </mxCell>
        <mxCell id="9IDuzy3jqwEA8BaXGOj5-6" value="เท็จ" style="edgeLabel;html=1;align=center;verticalAlign=middle;resizable=0;points=[];" parent="pmIDaaM-dI9VB6d24hKW-44" connectable="0" vertex="1">
          <mxGeometry x="-0.5706" y="-1" relative="1" as="geometry">
            <mxPoint as="offset" />
          </mxGeometry>
        </mxCell>
        <mxCell id="p4u4spNlCYpVbPZBGIiS-17" value="a[i] &lt; mn ?" style="rhombus;whiteSpace=wrap;html=1;" parent="1" vertex="1">
          <mxGeometry x="450" y="2180" width="160" height="70" as="geometry" />
        </mxCell>
        <mxCell id="pmIDaaM-dI9VB6d24hKW-23" value="" style="edgeStyle=orthogonalEdgeStyle;rounded=0;orthogonalLoop=1;jettySize=auto;html=1;entryX=0.5;entryY=0;entryDx=0;entryDy=0;" parent="1" source="pmIDaaM-dI9VB6d24hKW-42" target="pmIDaaM-dI9VB6d24hKW-45" edge="1">
          <mxGeometry relative="1" as="geometry">
            <mxPoint x="530.0526315789475" y="2430.023026315789" as="targetPoint" />
          </mxGeometry>
        </mxCell>
        <mxCell id="p4u4spNlCYpVbPZBGIiS-18" value="mn = a[i]" style="whiteSpace=wrap;html=1;" parent="1" vertex="1">
          <mxGeometry x="470" y="2310" width="120" height="50" as="geometry" />
        </mxCell>
        <mxCell id="pmIDaaM-dI9VB6d24hKW-25" value="" style="edgeStyle=orthogonalEdgeStyle;rounded=0;orthogonalLoop=1;jettySize=auto;html=1;" parent="1" target="p4u4spNlCYpVbPZBGIiS-20" edge="1">
          <mxGeometry relative="1" as="geometry">
            <mxPoint x="530" y="2500" as="sourcePoint" />
          </mxGeometry>
        </mxCell>
        <mxCell id="pmIDaaM-dI9VB6d24hKW-24" value="" style="edgeStyle=orthogonalEdgeStyle;rounded=0;orthogonalLoop=1;jettySize=auto;html=1;" parent="1" source="p4u4spNlCYpVbPZBGIiS-20" target="p4u4spNlCYpVbPZBGIiS-21" edge="1">
          <mxGeometry relative="1" as="geometry" />
        </mxCell>
        <mxCell id="p4u4spNlCYpVbPZBGIiS-20" value="mx = a[i]" style="whiteSpace=wrap;html=1;" parent="1" vertex="1">
          <mxGeometry x="470" y="2570" width="120" height="50" as="geometry" />
        </mxCell>
        <mxCell id="pmIDaaM-dI9VB6d24hKW-26" value="" style="edgeStyle=orthogonalEdgeStyle;rounded=0;orthogonalLoop=1;jettySize=auto;html=1;" parent="1" source="pmIDaaM-dI9VB6d24hKW-40" target="p4u4spNlCYpVbPZBGIiS-22" edge="1">
          <mxGeometry relative="1" as="geometry" />
        </mxCell>
        <mxCell id="p4u4spNlCYpVbPZBGIiS-21" value="i = i + 1" style="whiteSpace=wrap;html=1;" parent="1" vertex="1">
          <mxGeometry x="470" y="2680" width="120" height="50" as="geometry" />
        </mxCell>
        <mxCell id="pmIDaaM-dI9VB6d24hKW-27" value="" style="edgeStyle=orthogonalEdgeStyle;rounded=0;orthogonalLoop=1;jettySize=auto;html=1;" parent="1" source="p4u4spNlCYpVbPZBGIiS-22" target="p4u4spNlCYpVbPZBGIiS-23" edge="1">
          <mxGeometry relative="1" as="geometry" />
        </mxCell>
        <mxCell id="p4u4spNlCYpVbPZBGIiS-22" value="แสดง: Index:" style="shape=parallelogram;perimeter=parallelogramPerimeter;whiteSpace=wrap;html=1;" parent="1" vertex="1">
          <mxGeometry x="440" y="2840" width="180" height="50" as="geometry" />
        </mxCell>
        <mxCell id="pmIDaaM-dI9VB6d24hKW-28" value="" style="edgeStyle=orthogonalEdgeStyle;rounded=0;orthogonalLoop=1;jettySize=auto;html=1;" parent="1" source="p4u4spNlCYpVbPZBGIiS-23" target="p4u4spNlCYpVbPZBGIiS-24" edge="1">
          <mxGeometry relative="1" as="geometry" />
        </mxCell>
        <mxCell id="p4u4spNlCYpVbPZBGIiS-23" value="j = 0" style="whiteSpace=wrap;html=1;" parent="1" vertex="1">
          <mxGeometry x="440" y="2940" width="180" height="50" as="geometry" />
        </mxCell>
        <mxCell id="pmIDaaM-dI9VB6d24hKW-29" value="" style="edgeStyle=orthogonalEdgeStyle;rounded=0;orthogonalLoop=1;jettySize=auto;html=1;" parent="1" source="p4u4spNlCYpVbPZBGIiS-24" target="p4u4spNlCYpVbPZBGIiS-25" edge="1">
          <mxGeometry relative="1" as="geometry" />
        </mxCell>
        <mxCell id="9IDuzy3jqwEA8BaXGOj5-13" value="จริง" style="edgeLabel;html=1;align=center;verticalAlign=middle;resizable=0;points=[];" parent="pmIDaaM-dI9VB6d24hKW-29" connectable="0" vertex="1">
          <mxGeometry x="-0.3495" y="-1" relative="1" as="geometry">
            <mxPoint as="offset" />
          </mxGeometry>
        </mxCell>
        <mxCell id="pmIDaaM-dI9VB6d24hKW-48" style="edgeStyle=orthogonalEdgeStyle;rounded=0;orthogonalLoop=1;jettySize=auto;html=1;entryX=1;entryY=0.5;entryDx=0;entryDy=0;" parent="1" source="p4u4spNlCYpVbPZBGIiS-24" target="pmIDaaM-dI9VB6d24hKW-46" edge="1">
          <mxGeometry relative="1" as="geometry">
            <Array as="points">
              <mxPoint x="640" y="3110" />
              <mxPoint x="640" y="3455" />
            </Array>
          </mxGeometry>
        </mxCell>
        <mxCell id="9IDuzy3jqwEA8BaXGOj5-8" value="เท็จ" style="edgeLabel;html=1;align=center;verticalAlign=middle;resizable=0;points=[];" parent="pmIDaaM-dI9VB6d24hKW-48" connectable="0" vertex="1">
          <mxGeometry x="-0.6164" y="2" relative="1" as="geometry">
            <mxPoint as="offset" />
          </mxGeometry>
        </mxCell>
        <mxCell id="p4u4spNlCYpVbPZBGIiS-24" value="j &lt; n ?" style="rhombus;whiteSpace=wrap;html=1;" parent="1" vertex="1">
          <mxGeometry x="440" y="3070" width="180" height="80" as="geometry" />
        </mxCell>
        <mxCell id="pmIDaaM-dI9VB6d24hKW-30" value="" style="edgeStyle=orthogonalEdgeStyle;rounded=0;orthogonalLoop=1;jettySize=auto;html=1;" parent="1" source="p4u4spNlCYpVbPZBGIiS-25" target="p4u4spNlCYpVbPZBGIiS-26" edge="1">
          <mxGeometry relative="1" as="geometry" />
        </mxCell>
        <mxCell id="p4u4spNlCYpVbPZBGIiS-25" value="พิมพ์ &quot; j&quot;" style="shape=parallelogram;perimeter=parallelogramPerimeter;whiteSpace=wrap;html=1;" parent="1" vertex="1">
          <mxGeometry x="440" y="3235" width="180" height="50" as="geometry" />
        </mxCell>
        <mxCell id="pmIDaaM-dI9VB6d24hKW-31" value="" style="edgeStyle=orthogonalEdgeStyle;rounded=0;orthogonalLoop=1;jettySize=auto;html=1;" parent="1" source="pmIDaaM-dI9VB6d24hKW-46" target="p4u4spNlCYpVbPZBGIiS-27" edge="1">
          <mxGeometry relative="1" as="geometry" />
        </mxCell>
        <mxCell id="p4u4spNlCYpVbPZBGIiS-26" value="j = j + 1" style="whiteSpace=wrap;html=1;" parent="1" vertex="1">
          <mxGeometry x="470" y="3360" width="120" height="50" as="geometry" />
        </mxCell>
        <mxCell id="pmIDaaM-dI9VB6d24hKW-32" value="" style="edgeStyle=orthogonalEdgeStyle;rounded=0;orthogonalLoop=1;jettySize=auto;html=1;" parent="1" source="p4u4spNlCYpVbPZBGIiS-27" target="p4u4spNlCYpVbPZBGIiS-28" edge="1">
          <mxGeometry relative="1" as="geometry" />
        </mxCell>
        <mxCell id="p4u4spNlCYpVbPZBGIiS-27" value="แสดง: Array:" style="shape=parallelogram;perimeter=parallelogramPerimeter;whiteSpace=wrap;html=1;" parent="1" vertex="1">
          <mxGeometry x="440" y="3500" width="180" height="50" as="geometry" />
        </mxCell>
        <mxCell id="pmIDaaM-dI9VB6d24hKW-33" value="" style="edgeStyle=orthogonalEdgeStyle;rounded=0;orthogonalLoop=1;jettySize=auto;html=1;" parent="1" source="p4u4spNlCYpVbPZBGIiS-28" target="p4u4spNlCYpVbPZBGIiS-29" edge="1">
          <mxGeometry relative="1" as="geometry" />
        </mxCell>
        <mxCell id="p4u4spNlCYpVbPZBGIiS-28" value="k = 0" style="whiteSpace=wrap;html=1;" parent="1" vertex="1">
          <mxGeometry x="440" y="3620" width="180" height="50" as="geometry" />
        </mxCell>
        <mxCell id="pmIDaaM-dI9VB6d24hKW-34" value="" style="edgeStyle=orthogonalEdgeStyle;rounded=0;orthogonalLoop=1;jettySize=auto;html=1;" parent="1" source="p4u4spNlCYpVbPZBGIiS-29" target="p4u4spNlCYpVbPZBGIiS-30" edge="1">
          <mxGeometry relative="1" as="geometry" />
        </mxCell>
        <mxCell id="9IDuzy3jqwEA8BaXGOj5-14" value="จริง" style="edgeLabel;html=1;align=center;verticalAlign=middle;resizable=0;points=[];" parent="pmIDaaM-dI9VB6d24hKW-34" connectable="0" vertex="1">
          <mxGeometry x="-0.2004" relative="1" as="geometry">
            <mxPoint as="offset" />
          </mxGeometry>
        </mxCell>
        <mxCell id="pmIDaaM-dI9VB6d24hKW-49" style="edgeStyle=orthogonalEdgeStyle;rounded=0;orthogonalLoop=1;jettySize=auto;html=1;entryX=1;entryY=0.5;entryDx=0;entryDy=0;" parent="1" source="p4u4spNlCYpVbPZBGIiS-29" target="pmIDaaM-dI9VB6d24hKW-50" edge="1">
          <mxGeometry relative="1" as="geometry">
            <mxPoint x="690" y="4140" as="targetPoint" />
            <Array as="points">
              <mxPoint x="660" y="3820" />
              <mxPoint x="660" y="4165" />
            </Array>
          </mxGeometry>
        </mxCell>
        <mxCell id="9IDuzy3jqwEA8BaXGOj5-9" value="เท็จ" style="edgeLabel;html=1;align=center;verticalAlign=middle;resizable=0;points=[];" parent="pmIDaaM-dI9VB6d24hKW-49" connectable="0" vertex="1">
          <mxGeometry x="-0.2644" y="-2" relative="1" as="geometry">
            <mxPoint as="offset" />
          </mxGeometry>
        </mxCell>
        <mxCell id="p4u4spNlCYpVbPZBGIiS-29" value="k &lt; n ?" style="rhombus;whiteSpace=wrap;html=1;" parent="1" vertex="1">
          <mxGeometry x="440" y="3780" width="180" height="80" as="geometry" />
        </mxCell>
        <mxCell id="pmIDaaM-dI9VB6d24hKW-35" value="" style="edgeStyle=orthogonalEdgeStyle;rounded=0;orthogonalLoop=1;jettySize=auto;html=1;" parent="1" source="p4u4spNlCYpVbPZBGIiS-30" target="p4u4spNlCYpVbPZBGIiS-31" edge="1">
          <mxGeometry relative="1" as="geometry" />
        </mxCell>
        <mxCell id="p4u4spNlCYpVbPZBGIiS-30" value="พิมพ์ &quot; a[k]&quot;" style="shape=parallelogram;perimeter=parallelogramPerimeter;whiteSpace=wrap;html=1;" parent="1" vertex="1">
          <mxGeometry x="435" y="3950" width="190" height="50" as="geometry" />
        </mxCell>
        <mxCell id="pmIDaaM-dI9VB6d24hKW-36" value="" style="edgeStyle=orthogonalEdgeStyle;rounded=0;orthogonalLoop=1;jettySize=auto;html=1;" parent="1" source="pmIDaaM-dI9VB6d24hKW-50" target="p4u4spNlCYpVbPZBGIiS-32" edge="1">
          <mxGeometry relative="1" as="geometry" />
        </mxCell>
        <mxCell id="p4u4spNlCYpVbPZBGIiS-31" value="k = k + 1" style="whiteSpace=wrap;html=1;" parent="1" vertex="1">
          <mxGeometry x="470" y="4067" width="120" height="50" as="geometry" />
        </mxCell>
        <mxCell id="pmIDaaM-dI9VB6d24hKW-37" value="" style="edgeStyle=orthogonalEdgeStyle;rounded=0;orthogonalLoop=1;jettySize=auto;html=1;" parent="1" source="p4u4spNlCYpVbPZBGIiS-32" target="p4u4spNlCYpVbPZBGIiS-33" edge="1">
          <mxGeometry relative="1" as="geometry" />
        </mxCell>
        <mxCell id="p4u4spNlCYpVbPZBGIiS-32" value="แสดง: Min : mn" style="shape=parallelogram;perimeter=parallelogramPerimeter;whiteSpace=wrap;html=1;" parent="1" vertex="1">
          <mxGeometry x="440" y="4220" width="180" height="50" as="geometry" />
        </mxCell>
        <mxCell id="pmIDaaM-dI9VB6d24hKW-38" value="" style="edgeStyle=orthogonalEdgeStyle;rounded=0;orthogonalLoop=1;jettySize=auto;html=1;" parent="1" source="p4u4spNlCYpVbPZBGIiS-33" target="p4u4spNlCYpVbPZBGIiS-34" edge="1">
          <mxGeometry relative="1" as="geometry" />
        </mxCell>
        <mxCell id="p4u4spNlCYpVbPZBGIiS-33" value="แสดง: Max : mx" style="shape=parallelogram;perimeter=parallelogramPerimeter;whiteSpace=wrap;html=1;" parent="1" vertex="1">
          <mxGeometry x="440" y="4340" width="180" height="50" as="geometry" />
        </mxCell>
        <mxCell id="p4u4spNlCYpVbPZBGIiS-34" value="Stop" style="ellipse;whiteSpace=wrap;html=1;" parent="1" vertex="1">
          <mxGeometry x="470" y="4450" width="120" height="50" as="geometry" />
        </mxCell>
        <mxCell id="pmIDaaM-dI9VB6d24hKW-13" value="" style="edgeStyle=orthogonalEdgeStyle;rounded=0;orthogonalLoop=1;jettySize=auto;html=1;" parent="1" source="p4u4spNlCYpVbPZBGIiS-9" target="pmIDaaM-dI9VB6d24hKW-12" edge="1">
          <mxGeometry relative="1" as="geometry">
            <mxPoint x="520" y="1160" as="sourcePoint" />
            <mxPoint x="520" y="1250" as="targetPoint" />
          </mxGeometry>
        </mxCell>
        <mxCell id="9IDuzy3jqwEA8BaXGOj5-11" value="จริง" style="edgeLabel;html=1;align=center;verticalAlign=middle;resizable=0;points=[];" parent="pmIDaaM-dI9VB6d24hKW-13" connectable="0" vertex="1">
          <mxGeometry x="-0.3418" y="-1" relative="1" as="geometry">
            <mxPoint as="offset" />
          </mxGeometry>
        </mxCell>
        <mxCell id="pmIDaaM-dI9VB6d24hKW-12" value="" style="ellipse;whiteSpace=wrap;html=1;aspect=fixed;" parent="1" vertex="1">
          <mxGeometry x="505" y="1200" width="30" height="30" as="geometry" />
        </mxCell>
        <mxCell id="pmIDaaM-dI9VB6d24hKW-16" value="" style="edgeStyle=orthogonalEdgeStyle;rounded=0;orthogonalLoop=1;jettySize=auto;html=1;" parent="1" source="p4u4spNlCYpVbPZBGIiS-8" target="pmIDaaM-dI9VB6d24hKW-15" edge="1">
          <mxGeometry relative="1" as="geometry">
            <mxPoint x="520" y="990" as="sourcePoint" />
            <mxPoint x="520" y="1080" as="targetPoint" />
          </mxGeometry>
        </mxCell>
        <mxCell id="pmIDaaM-dI9VB6d24hKW-15" value="" style="ellipse;whiteSpace=wrap;html=1;aspect=fixed;" parent="1" vertex="1">
          <mxGeometry x="505" y="1020" width="30" height="30" as="geometry" />
        </mxCell>
        <mxCell id="pmIDaaM-dI9VB6d24hKW-41" value="" style="edgeStyle=orthogonalEdgeStyle;rounded=0;orthogonalLoop=1;jettySize=auto;html=1;" parent="1" source="p4u4spNlCYpVbPZBGIiS-21" target="pmIDaaM-dI9VB6d24hKW-40" edge="1">
          <mxGeometry relative="1" as="geometry">
            <mxPoint x="530" y="2730" as="sourcePoint" />
            <mxPoint x="530" y="2840" as="targetPoint" />
          </mxGeometry>
        </mxCell>
        <mxCell id="pmIDaaM-dI9VB6d24hKW-40" value="" style="ellipse;whiteSpace=wrap;html=1;aspect=fixed;" parent="1" vertex="1">
          <mxGeometry x="515" y="2770" width="30" height="30" as="geometry" />
        </mxCell>
        <mxCell id="pmIDaaM-dI9VB6d24hKW-43" value="" style="edgeStyle=orthogonalEdgeStyle;rounded=0;orthogonalLoop=1;jettySize=auto;html=1;" parent="1" source="p4u4spNlCYpVbPZBGIiS-18" target="pmIDaaM-dI9VB6d24hKW-42" edge="1">
          <mxGeometry relative="1" as="geometry">
            <mxPoint x="530" y="2360" as="sourcePoint" />
            <mxPoint x="530" y="2430" as="targetPoint" />
          </mxGeometry>
        </mxCell>
        <mxCell id="pmIDaaM-dI9VB6d24hKW-42" value="" style="ellipse;whiteSpace=wrap;html=1;aspect=fixed;" parent="1" vertex="1">
          <mxGeometry x="515" y="2390" width="30" height="30" as="geometry" />
        </mxCell>
        <mxCell id="pmIDaaM-dI9VB6d24hKW-45" value="a[i] &amp;gt; mx ?" style="whiteSpace=wrap;html=1;" parent="1" vertex="1">
          <mxGeometry x="470" y="2450" width="120" height="50" as="geometry" />
        </mxCell>
        <mxCell id="pmIDaaM-dI9VB6d24hKW-47" value="" style="edgeStyle=orthogonalEdgeStyle;rounded=0;orthogonalLoop=1;jettySize=auto;html=1;" parent="1" source="p4u4spNlCYpVbPZBGIiS-26" target="pmIDaaM-dI9VB6d24hKW-46" edge="1">
          <mxGeometry relative="1" as="geometry">
            <mxPoint x="530" y="3410" as="sourcePoint" />
            <mxPoint x="530" y="3500" as="targetPoint" />
          </mxGeometry>
        </mxCell>
        <mxCell id="pmIDaaM-dI9VB6d24hKW-46" value="" style="ellipse;whiteSpace=wrap;html=1;aspect=fixed;" parent="1" vertex="1">
          <mxGeometry x="515" y="3440" width="30" height="30" as="geometry" />
        </mxCell>
        <mxCell id="pmIDaaM-dI9VB6d24hKW-51" value="" style="edgeStyle=orthogonalEdgeStyle;rounded=0;orthogonalLoop=1;jettySize=auto;html=1;" parent="1" source="p4u4spNlCYpVbPZBGIiS-31" target="pmIDaaM-dI9VB6d24hKW-50" edge="1">
          <mxGeometry relative="1" as="geometry">
            <mxPoint x="530" y="4117" as="sourcePoint" />
            <mxPoint x="530" y="4220" as="targetPoint" />
          </mxGeometry>
        </mxCell>
        <mxCell id="pmIDaaM-dI9VB6d24hKW-50" value="" style="ellipse;whiteSpace=wrap;html=1;aspect=fixed;" parent="1" vertex="1">
          <mxGeometry x="515" y="4150" width="30" height="30" as="geometry" />
        </mxCell>
      </root>
    </mxGraphModel>
  </diagram>
</mxfile>
